<mxfile host="app.diagrams.net" modified="2022-01-26T14:58:49.826Z" agent="5.0 (X11)" etag="01lKDzTBicQq9_xZSc6D" version="16.4.7" type="github">
  <diagram name="Page-1" id="5f0bae14-7c28-e335-631c-24af17079c00">
    <mxGraphModel dx="1153" dy="2107" grid="1" gridSize="10" guides="1" tooltips="1" connect="1" arrows="1" fold="1" page="1" pageScale="1" pageWidth="1100" pageHeight="850" background="none" math="0" shadow="0">
      <root>
        <mxCell id="0" />
        <mxCell id="1" parent="0" />
        <mxCell id="5YQAwgCXz7LlOUfw-BGM-48" value="&lt;div&gt;ESP32&lt;/div&gt;" style="verticalAlign=top;align=left;spacingTop=8;spacingLeft=2;spacingRight=12;shape=cube;size=10;direction=south;fontStyle=4;html=1;fontFamily=Helvetica;fontSize=11;fontColor=default;" vertex="1" parent="1">
          <mxGeometry x="1060" y="-30" width="490" height="480" as="geometry" />
        </mxCell>
        <mxCell id="5YQAwgCXz7LlOUfw-BGM-47" value="SSD1306" style="verticalAlign=top;align=left;spacingTop=8;spacingLeft=2;spacingRight=12;shape=cube;size=10;direction=south;fontStyle=4;html=1;fontFamily=Helvetica;fontSize=11;fontColor=default;" vertex="1" parent="1">
          <mxGeometry x="510" y="-20" width="470" height="345" as="geometry" />
        </mxCell>
        <mxCell id="5YQAwgCXz7LlOUfw-BGM-28" value="BLE Client" style="shape=module;align=left;spacingLeft=20;align=center;verticalAlign=top;fontFamily=Helvetica;fontSize=11;fontColor=default;" vertex="1" parent="1">
          <mxGeometry x="1140" y="15" width="360" height="290" as="geometry" />
        </mxCell>
        <mxCell id="39150e848f15840c-3" value="&lt;div&gt;MPU6050&lt;/div&gt;" style="verticalAlign=top;align=left;spacingTop=8;spacingLeft=2;spacingRight=12;shape=cube;size=10;direction=south;fontStyle=4;html=1;rounded=0;shadow=0;comic=0;labelBackgroundColor=none;strokeWidth=1;fontFamily=Verdana;fontSize=12" parent="1" vertex="1">
          <mxGeometry x="675" y="550" width="260" height="150" as="geometry" />
        </mxCell>
        <mxCell id="5YQAwgCXz7LlOUfw-BGM-43" style="edgeStyle=orthogonalEdgeStyle;shape=connector;rounded=0;orthogonalLoop=1;jettySize=auto;html=1;exitX=0;exitY=0.3;exitDx=0;exitDy=0;entryX=1;entryY=0.5;entryDx=0;entryDy=0;labelBackgroundColor=default;fontFamily=Helvetica;fontSize=11;fontColor=default;endArrow=classic;strokeColor=default;" edge="1" parent="1" source="39150e848f15840c-5" target="39150e848f15840c-8">
          <mxGeometry relative="1" as="geometry" />
        </mxCell>
        <mxCell id="39150e848f15840c-5" value="Nav service" style="shape=component;align=left;spacingLeft=36;rounded=0;shadow=0;comic=0;labelBackgroundColor=none;strokeWidth=1;fontFamily=Verdana;fontSize=12;html=1;" parent="1" vertex="1">
          <mxGeometry x="1200" y="75" width="120" height="60" as="geometry" />
        </mxCell>
        <mxCell id="39150e848f15840c-7" value="Passkey display" style="shape=component;align=left;spacingLeft=36;rounded=0;shadow=0;comic=0;labelBackgroundColor=none;strokeWidth=1;fontFamily=Verdana;fontSize=12;html=1;" parent="1" vertex="1">
          <mxGeometry x="520" y="130" width="140" height="60" as="geometry" />
        </mxCell>
        <mxCell id="39150e848f15840c-8" value="&lt;div&gt;«interface»&lt;b&gt;&lt;br&gt;&lt;/b&gt;&lt;/div&gt;&lt;div&gt;&lt;b&gt;Wait for notify&lt;br&gt;&lt;/b&gt;&lt;/div&gt;" style="html=1;rounded=0;shadow=0;comic=0;labelBackgroundColor=none;strokeWidth=1;fontFamily=Verdana;fontSize=12;align=center;" parent="1" vertex="1">
          <mxGeometry x="840" y="135" width="110" height="50" as="geometry" />
        </mxCell>
        <mxCell id="5YQAwgCXz7LlOUfw-BGM-56" style="edgeStyle=orthogonalEdgeStyle;shape=connector;rounded=0;orthogonalLoop=1;jettySize=auto;html=1;exitX=1;exitY=0.5;exitDx=0;exitDy=0;entryX=0;entryY=0.7;entryDx=0;entryDy=0;labelBackgroundColor=default;fontFamily=Helvetica;fontSize=11;fontColor=default;endArrow=classic;strokeColor=default;" edge="1" parent="1" source="39150e848f15840c-10" target="5YQAwgCXz7LlOUfw-BGM-51">
          <mxGeometry relative="1" as="geometry">
            <Array as="points">
              <mxPoint x="960" y="630" />
              <mxPoint x="960" y="389" />
            </Array>
          </mxGeometry>
        </mxCell>
        <mxCell id="39150e848f15840c-10" value="Motion detection" style="shape=component;align=left;spacingLeft=36;rounded=0;shadow=0;comic=0;labelBackgroundColor=none;strokeWidth=1;fontFamily=Verdana;fontSize=12;html=1;" parent="1" vertex="1">
          <mxGeometry x="705" y="600" width="160" height="60" as="geometry" />
        </mxCell>
        <mxCell id="39150e848f15840c-16" style="edgeStyle=orthogonalEdgeStyle;rounded=0;html=1;dashed=1;labelBackgroundColor=none;startArrow=none;startFill=0;startSize=8;endArrow=open;endFill=0;endSize=16;fontFamily=Verdana;fontSize=12;" parent="1" source="39150e848f15840c-7" target="39150e848f15840c-8" edge="1">
          <mxGeometry relative="1" as="geometry">
            <Array as="points">
              <mxPoint x="730" y="165" />
              <mxPoint x="730" y="165" />
            </Array>
          </mxGeometry>
        </mxCell>
        <mxCell id="5YQAwgCXz7LlOUfw-BGM-44" style="edgeStyle=orthogonalEdgeStyle;shape=connector;rounded=0;orthogonalLoop=1;jettySize=auto;html=1;exitX=0;exitY=0.3;exitDx=0;exitDy=0;entryX=1;entryY=0.75;entryDx=0;entryDy=0;labelBackgroundColor=default;fontFamily=Helvetica;fontSize=11;fontColor=default;endArrow=classic;strokeColor=default;" edge="1" parent="1" source="5YQAwgCXz7LlOUfw-BGM-8" target="39150e848f15840c-8">
          <mxGeometry relative="1" as="geometry" />
        </mxCell>
        <mxCell id="5YQAwgCXz7LlOUfw-BGM-8" value="Passkey" style="shape=component;align=left;spacingLeft=36;rounded=0;shadow=0;comic=0;labelBackgroundColor=none;strokeWidth=1;fontFamily=Verdana;fontSize=12;html=1;" vertex="1" parent="1">
          <mxGeometry x="1200" y="170" width="120" height="60" as="geometry" />
        </mxCell>
        <mxCell id="5YQAwgCXz7LlOUfw-BGM-19" style="edgeStyle=orthogonalEdgeStyle;rounded=0;html=1;dashed=1;labelBackgroundColor=none;startArrow=none;startFill=0;startSize=8;endArrow=open;endFill=0;endSize=16;fontFamily=Verdana;fontSize=12;" edge="1" parent="1" source="5YQAwgCXz7LlOUfw-BGM-9" target="39150e848f15840c-8">
          <mxGeometry relative="1" as="geometry" />
        </mxCell>
        <mxCell id="5YQAwgCXz7LlOUfw-BGM-9" value="Password input" style="shape=component;align=left;spacingLeft=36;rounded=0;shadow=0;comic=0;labelBackgroundColor=none;strokeWidth=1;fontFamily=Verdana;fontSize=12;html=1;" vertex="1" parent="1">
          <mxGeometry x="520" y="210" width="140" height="60" as="geometry" />
        </mxCell>
        <mxCell id="5YQAwgCXz7LlOUfw-BGM-18" style="edgeStyle=orthogonalEdgeStyle;rounded=0;html=1;dashed=1;labelBackgroundColor=none;startArrow=none;startFill=0;startSize=8;endArrow=open;endFill=0;endSize=16;fontFamily=Verdana;fontSize=12;" edge="1" parent="1" source="5YQAwgCXz7LlOUfw-BGM-10" target="39150e848f15840c-8">
          <mxGeometry relative="1" as="geometry" />
        </mxCell>
        <mxCell id="5YQAwgCXz7LlOUfw-BGM-10" value="Nav screen&lt;span style=&quot;white-space: pre&quot;&gt;	&lt;/span&gt;" style="shape=component;align=left;spacingLeft=36;rounded=0;shadow=0;comic=0;labelBackgroundColor=none;strokeWidth=1;fontFamily=Verdana;fontSize=12;html=1;" vertex="1" parent="1">
          <mxGeometry x="540" y="50" width="120" height="60" as="geometry" />
        </mxCell>
        <mxCell id="5YQAwgCXz7LlOUfw-BGM-23" value="On new data notify" style="text;html=1;strokeColor=none;fillColor=none;align=center;verticalAlign=middle;whiteSpace=wrap;rounded=0;fontFamily=Helvetica;fontSize=11;fontColor=default;" vertex="1" parent="1">
          <mxGeometry x="1400" y="90" width="60" height="30" as="geometry" />
        </mxCell>
        <mxCell id="5YQAwgCXz7LlOUfw-BGM-24" value="Notify val 0" style="text;html=1;strokeColor=none;fillColor=none;align=center;verticalAlign=middle;whiteSpace=wrap;rounded=0;fontFamily=Helvetica;fontSize=11;fontColor=default;" vertex="1" parent="1">
          <mxGeometry x="710" y="39" width="60" height="30" as="geometry" />
        </mxCell>
        <mxCell id="5YQAwgCXz7LlOUfw-BGM-25" value="Notify val 1" style="text;html=1;strokeColor=none;fillColor=none;align=center;verticalAlign=middle;whiteSpace=wrap;rounded=0;fontFamily=Helvetica;fontSize=11;fontColor=default;" vertex="1" parent="1">
          <mxGeometry x="710" y="130" width="60" height="30" as="geometry" />
        </mxCell>
        <mxCell id="5YQAwgCXz7LlOUfw-BGM-26" value="Notify val 2" style="text;html=1;strokeColor=none;fillColor=none;align=center;verticalAlign=middle;whiteSpace=wrap;rounded=0;fontFamily=Helvetica;fontSize=11;fontColor=default;" vertex="1" parent="1">
          <mxGeometry x="710" y="205" width="60" height="30" as="geometry" />
        </mxCell>
        <mxCell id="5YQAwgCXz7LlOUfw-BGM-34" style="edgeStyle=orthogonalEdgeStyle;shape=connector;rounded=0;orthogonalLoop=1;jettySize=auto;html=1;exitX=0;exitY=0.5;exitDx=0;exitDy=0;entryX=1;entryY=0.5;entryDx=0;entryDy=0;labelBackgroundColor=default;fontFamily=Helvetica;fontSize=11;fontColor=default;endArrow=classic;strokeColor=default;" edge="1" parent="1" source="5YQAwgCXz7LlOUfw-BGM-32" target="39150e848f15840c-5">
          <mxGeometry relative="1" as="geometry" />
        </mxCell>
        <mxCell id="5YQAwgCXz7LlOUfw-BGM-32" value="" style="ellipse;fillColor=#ffffff;strokeColor=#000000;fontFamily=Helvetica;fontSize=11;fontColor=default;" vertex="1" parent="1">
          <mxGeometry x="1370" y="90" width="30" height="30" as="geometry" />
        </mxCell>
        <mxCell id="5YQAwgCXz7LlOUfw-BGM-40" value="&lt;div&gt;On passkey generation&lt;/div&gt;" style="text;html=1;strokeColor=none;fillColor=none;align=center;verticalAlign=middle;whiteSpace=wrap;rounded=0;fontFamily=Helvetica;fontSize=11;fontColor=default;" vertex="1" parent="1">
          <mxGeometry x="1400" y="185" width="60" height="30" as="geometry" />
        </mxCell>
        <mxCell id="5YQAwgCXz7LlOUfw-BGM-41" style="edgeStyle=orthogonalEdgeStyle;shape=connector;rounded=0;orthogonalLoop=1;jettySize=auto;html=1;exitX=0;exitY=0.5;exitDx=0;exitDy=0;entryX=1;entryY=0.5;entryDx=0;entryDy=0;labelBackgroundColor=default;fontFamily=Helvetica;fontSize=11;fontColor=default;endArrow=classic;strokeColor=default;" edge="1" parent="1" source="5YQAwgCXz7LlOUfw-BGM-42">
          <mxGeometry relative="1" as="geometry">
            <mxPoint x="1320" y="200" as="targetPoint" />
          </mxGeometry>
        </mxCell>
        <mxCell id="5YQAwgCXz7LlOUfw-BGM-42" value="" style="ellipse;fillColor=#ffffff;strokeColor=#000000;fontFamily=Helvetica;fontSize=11;fontColor=default;" vertex="1" parent="1">
          <mxGeometry x="1370" y="185" width="30" height="30" as="geometry" />
        </mxCell>
        <mxCell id="5YQAwgCXz7LlOUfw-BGM-45" value="Notify val 0" style="text;html=1;strokeColor=none;fillColor=none;align=center;verticalAlign=middle;whiteSpace=wrap;rounded=0;fontFamily=Helvetica;fontSize=11;fontColor=default;" vertex="1" parent="1">
          <mxGeometry x="990" y="120" width="60" height="30" as="geometry" />
        </mxCell>
        <mxCell id="5YQAwgCXz7LlOUfw-BGM-46" value="Notify val 1" style="text;html=1;strokeColor=none;fillColor=none;align=center;verticalAlign=middle;whiteSpace=wrap;rounded=0;fontFamily=Helvetica;fontSize=11;fontColor=default;" vertex="1" parent="1">
          <mxGeometry x="990" y="180" width="60" height="30" as="geometry" />
        </mxCell>
        <mxCell id="5YQAwgCXz7LlOUfw-BGM-49" value="Controls" style="verticalAlign=top;align=left;spacingTop=8;spacingLeft=2;spacingRight=12;shape=cube;size=10;direction=south;fontStyle=4;html=1;rounded=0;shadow=0;comic=0;labelBackgroundColor=none;strokeWidth=1;fontFamily=Verdana;fontSize=12" vertex="1" parent="1">
          <mxGeometry x="975" y="550" width="260" height="150" as="geometry" />
        </mxCell>
        <mxCell id="5YQAwgCXz7LlOUfw-BGM-52" style="edgeStyle=orthogonalEdgeStyle;shape=connector;rounded=0;orthogonalLoop=1;jettySize=auto;html=1;exitX=1;exitY=0.5;exitDx=0;exitDy=0;entryX=1;entryY=0.5;entryDx=0;entryDy=0;labelBackgroundColor=default;fontFamily=Helvetica;fontSize=11;fontColor=default;endArrow=classic;strokeColor=default;" edge="1" parent="1" source="5YQAwgCXz7LlOUfw-BGM-50" target="5YQAwgCXz7LlOUfw-BGM-51">
          <mxGeometry relative="1" as="geometry" />
        </mxCell>
        <mxCell id="5YQAwgCXz7LlOUfw-BGM-50" value="Left/right shifter buttons" style="shape=component;align=left;spacingLeft=36;rounded=0;shadow=0;comic=0;labelBackgroundColor=none;strokeWidth=1;fontFamily=Verdana;fontSize=12;html=1;" vertex="1" parent="1">
          <mxGeometry x="995" y="600" width="200" height="60" as="geometry" />
        </mxCell>
        <mxCell id="5YQAwgCXz7LlOUfw-BGM-59" style="edgeStyle=orthogonalEdgeStyle;shape=connector;rounded=0;orthogonalLoop=1;jettySize=auto;html=1;exitX=0;exitY=0.3;exitDx=0;exitDy=0;entryX=0.75;entryY=1;entryDx=0;entryDy=0;labelBackgroundColor=default;fontFamily=Helvetica;fontSize=11;fontColor=default;endArrow=classic;strokeColor=default;" edge="1" parent="1" source="5YQAwgCXz7LlOUfw-BGM-51" target="39150e848f15840c-8">
          <mxGeometry relative="1" as="geometry" />
        </mxCell>
        <mxCell id="5YQAwgCXz7LlOUfw-BGM-51" value="&lt;div&gt;Password input&lt;/div&gt;" style="shape=component;align=left;spacingLeft=36;rounded=0;shadow=0;comic=0;labelBackgroundColor=none;strokeWidth=1;fontFamily=Verdana;fontSize=12;html=1;" vertex="1" parent="1">
          <mxGeometry x="1130" y="340" width="150" height="70" as="geometry" />
        </mxCell>
        <mxCell id="5YQAwgCXz7LlOUfw-BGM-54" value="&lt;div&gt;Motion detection triggers wake interrupt&lt;/div&gt;" style="text;html=1;strokeColor=none;fillColor=none;align=center;verticalAlign=middle;whiteSpace=wrap;rounded=0;fontFamily=Helvetica;fontSize=11;fontColor=default;" vertex="1" parent="1">
          <mxGeometry x="900" y="450" width="60" height="30" as="geometry" />
        </mxCell>
        <mxCell id="5YQAwgCXz7LlOUfw-BGM-57" value="New letters and input start" style="text;html=1;strokeColor=none;fillColor=none;align=center;verticalAlign=middle;whiteSpace=wrap;rounded=0;fontFamily=Helvetica;fontSize=11;fontColor=default;" vertex="1" parent="1">
          <mxGeometry x="1310" y="520" width="60" height="30" as="geometry" />
        </mxCell>
        <mxCell id="5YQAwgCXz7LlOUfw-BGM-60" value="Notify val 2" style="text;html=1;strokeColor=none;fillColor=none;align=center;verticalAlign=middle;whiteSpace=wrap;rounded=0;fontFamily=Helvetica;fontSize=11;fontColor=default;" vertex="1" parent="1">
          <mxGeometry x="990" y="325" width="60" height="30" as="geometry" />
        </mxCell>
        <mxCell id="5YQAwgCXz7LlOUfw-BGM-62" value="Buzzer" style="verticalAlign=top;align=left;spacingTop=8;spacingLeft=2;spacingRight=12;shape=cube;size=10;direction=south;fontStyle=4;html=1;rounded=0;shadow=0;comic=0;labelBackgroundColor=none;strokeWidth=1;fontFamily=Verdana;fontSize=12" vertex="1" parent="1">
          <mxGeometry x="380" y="550" width="260" height="150" as="geometry" />
        </mxCell>
        <mxCell id="5YQAwgCXz7LlOUfw-BGM-63" value="Alarm" style="shape=component;align=left;spacingLeft=36;rounded=0;shadow=0;comic=0;labelBackgroundColor=none;strokeWidth=1;fontFamily=Verdana;fontSize=12;html=1;" vertex="1" parent="1">
          <mxGeometry x="465" y="595" width="90" height="60" as="geometry" />
        </mxCell>
        <mxCell id="5YQAwgCXz7LlOUfw-BGM-64" style="edgeStyle=orthogonalEdgeStyle;shape=connector;rounded=0;orthogonalLoop=1;jettySize=auto;html=1;exitX=0;exitY=0.7;exitDx=0;exitDy=0;entryX=0.5;entryY=1;entryDx=0;entryDy=0;labelBackgroundColor=default;fontFamily=Helvetica;fontSize=11;fontColor=default;endArrow=classic;strokeColor=default;" edge="1" parent="1" source="39150e848f15840c-10" target="5YQAwgCXz7LlOUfw-BGM-63">
          <mxGeometry relative="1" as="geometry">
            <Array as="points">
              <mxPoint x="660" y="642" />
              <mxPoint x="660" y="730" />
              <mxPoint x="510" y="730" />
            </Array>
          </mxGeometry>
        </mxCell>
        <mxCell id="5YQAwgCXz7LlOUfw-BGM-65" value="&lt;div&gt;Motion detection triggers alarm&lt;/div&gt;" style="text;html=1;strokeColor=none;fillColor=none;align=center;verticalAlign=middle;whiteSpace=wrap;rounded=0;fontFamily=Helvetica;fontSize=11;fontColor=default;" vertex="1" parent="1">
          <mxGeometry x="555" y="750" width="60" height="30" as="geometry" />
        </mxCell>
        <mxCell id="5YQAwgCXz7LlOUfw-BGM-67" style="edgeStyle=orthogonalEdgeStyle;shape=connector;rounded=0;orthogonalLoop=1;jettySize=auto;html=1;exitX=1;exitY=0.25;exitDx=0;exitDy=0;entryX=0;entryY=0.7;entryDx=0;entryDy=0;labelBackgroundColor=default;fontFamily=Helvetica;fontSize=11;fontColor=default;endArrow=classic;strokeColor=default;" edge="1" parent="1" source="5YQAwgCXz7LlOUfw-BGM-51" target="5YQAwgCXz7LlOUfw-BGM-63">
          <mxGeometry relative="1" as="geometry">
            <Array as="points">
              <mxPoint x="1390" y="357" />
              <mxPoint x="1390" y="810" />
              <mxPoint x="445" y="810" />
              <mxPoint x="445" y="637" />
            </Array>
          </mxGeometry>
        </mxCell>
        <mxCell id="5YQAwgCXz7LlOUfw-BGM-68" value="&lt;div&gt;Wrong password triggers alarm&lt;/div&gt;" style="text;html=1;strokeColor=none;fillColor=none;align=center;verticalAlign=middle;whiteSpace=wrap;rounded=0;fontFamily=Helvetica;fontSize=11;fontColor=default;" vertex="1" parent="1">
          <mxGeometry x="690" y="770" width="60" height="30" as="geometry" />
        </mxCell>
        <mxCell id="5YQAwgCXz7LlOUfw-BGM-69" value="SIM7000" style="verticalAlign=top;align=left;spacingTop=8;spacingLeft=2;spacingRight=12;shape=cube;size=10;direction=south;fontStyle=4;html=1;rounded=0;shadow=0;comic=0;labelBackgroundColor=none;strokeWidth=1;fontFamily=Verdana;fontSize=12" vertex="1" parent="1">
          <mxGeometry x="380" y="340" width="300" height="150" as="geometry" />
        </mxCell>
        <mxCell id="5YQAwgCXz7LlOUfw-BGM-70" value="Blynk alarm and location streaming" style="shape=component;align=left;spacingLeft=36;rounded=0;shadow=0;comic=0;labelBackgroundColor=none;strokeWidth=1;fontFamily=Verdana;fontSize=12;html=1;" vertex="1" parent="1">
          <mxGeometry x="400" y="415" width="260" height="60" as="geometry" />
        </mxCell>
        <mxCell id="5YQAwgCXz7LlOUfw-BGM-72" style="edgeStyle=orthogonalEdgeStyle;shape=connector;rounded=0;orthogonalLoop=1;jettySize=auto;html=1;exitX=0.5;exitY=0;exitDx=0;exitDy=0;entryX=0.5;entryY=1;entryDx=0;entryDy=0;labelBackgroundColor=default;fontFamily=Helvetica;fontSize=11;fontColor=default;endArrow=classic;strokeColor=default;" edge="1" parent="1" source="5YQAwgCXz7LlOUfw-BGM-63" target="5YQAwgCXz7LlOUfw-BGM-70">
          <mxGeometry relative="1" as="geometry" />
        </mxCell>
        <mxCell id="5YQAwgCXz7LlOUfw-BGM-73" value="Alarm trigger starts sending data" style="text;html=1;strokeColor=none;fillColor=none;align=center;verticalAlign=middle;whiteSpace=wrap;rounded=0;fontFamily=Helvetica;fontSize=11;fontColor=default;" vertex="1" parent="1">
          <mxGeometry x="530" y="510" width="60" height="30" as="geometry" />
        </mxCell>
      </root>
    </mxGraphModel>
  </diagram>
</mxfile>
